<svg xmlns="http://www.w3.org/2000/svg" xmlns:xlink="http://www.w3.org/1999/xlink" version="1.1" width="256" height="256" viewBox="0 0 256 256" xml:space="preserve">

<defs>
</defs>
<g style="stroke: none; stroke-width: 0; stroke-dasharray: none; stroke-linecap: butt; stroke-linejoin: miter; stroke-miterlimit: 10; fill: none; fill-rule: nonzero; opacity: 1;" transform="translate(1.4065934065934016 1.4065934065934016) scale(2.81 2.81)" >
	<path d="M 87 77.103 H 54.88 c -1.657 0 -3 -1.343 -3 -3 s 1.343 -3 3 -3 H 87 c 1.657 0 3 1.343 3 3 S 88.657 77.103 87 77.103 z" style="stroke: none; stroke-width: 1; stroke-dasharray: none; stroke-linecap: butt; stroke-linejoin: miter; stroke-miterlimit: 10; fill: rgb(0,0,0); fill-rule: nonzero; opacity: 1;" transform=" matrix(1 0 0 1 0 0) " stroke-linecap="round" />
	<path d="M 54.114 18.898 H 3 c -1.657 0 -3 -1.343 -3 -3 s 1.343 -3 3 -3 h 51.114 c 1.657 0 3 1.343 3 3 S 55.771 18.898 54.114 18.898 z" style="stroke: none; stroke-width: 1; stroke-dasharray: none; stroke-linecap: butt; stroke-linejoin: miter; stroke-miterlimit: 10; fill: rgb(0,0,0); fill-rule: nonzero; opacity: 1;" transform=" matrix(1 0 0 1 0 0) " stroke-linecap="round" />
	<path d="M 87 48 H 31.097 c -1.657 0 -3 -1.343 -3 -3 c 0 -1.657 1.343 -3 3 -3 H 87 c 1.657 0 3 1.343 3 3 C 90 46.657 88.657 48 87 48 z" style="stroke: none; stroke-width: 1; stroke-dasharray: none; stroke-linecap: butt; stroke-linejoin: miter; stroke-miterlimit: 10; fill: rgb(0,0,0); fill-rule: nonzero; opacity: 1;" transform=" matrix(1 0 0 1 0 0) " stroke-linecap="round" />
	<path d="M 35.885 77.103 H 3 c -1.657 0 -3 -1.343 -3 -3 s 1.343 -3 3 -3 h 32.885 c 1.657 0 3 1.343 3 3 S 37.542 77.103 35.885 77.103 z" style="stroke: none; stroke-width: 1; stroke-dasharray: none; stroke-linecap: butt; stroke-linejoin: miter; stroke-miterlimit: 10; fill: rgb(0,0,0); fill-rule: nonzero; opacity: 1;" transform=" matrix(1 0 0 1 0 0) " stroke-linecap="round" />
	<path d="M 12.868 48 H 3 c -1.657 0 -3 -1.343 -3 -3 c 0 -1.657 1.343 -3 3 -3 h 9.868 c 1.657 0 3 1.343 3 3 C 15.868 46.657 14.524 48 12.868 48 z" style="stroke: none; stroke-width: 1; stroke-dasharray: none; stroke-linecap: butt; stroke-linejoin: miter; stroke-miterlimit: 10; fill: rgb(0,0,0); fill-rule: nonzero; opacity: 1;" transform=" matrix(1 0 0 1 0 0) " stroke-linecap="round" />
	<path d="M 87 18.898 H 72.521 c -1.657 0 -3 -1.343 -3 -3 s 1.343 -3 3 -3 H 87 c 1.657 0 3 1.343 3 3 S 88.657 18.898 87 18.898 z" style="stroke: none; stroke-width: 1; stroke-dasharray: none; stroke-linecap: butt; stroke-linejoin: miter; stroke-miterlimit: 10; fill: rgb(0,0,0); fill-rule: nonzero; opacity: 1;" transform=" matrix(1 0 0 1 0 0) " stroke-linecap="round" />
	<path d="M 54.114 86.217 H 35.885 c -1.657 0 -3 -1.343 -3 -3 V 64.987 c 0 -1.657 1.343 -3 3 -3 h 18.229 c 1.657 0 3 1.343 3 3 v 18.229 C 57.114 84.874 55.771 86.217 54.114 86.217 z M 38.885 80.217 h 12.229 V 67.987 H 38.885 V 80.217 z" style="stroke: none; stroke-width: 1; stroke-dasharray: none; stroke-linecap: butt; stroke-linejoin: miter; stroke-miterlimit: 10; fill: rgb(0,0,0); fill-rule: nonzero; opacity: 1;" transform=" matrix(1 0 0 1 0 0) " stroke-linecap="round" />
	<path d="M 31.097 57.114 H 12.868 c -1.657 0 -3 -1.343 -3 -3 V 35.885 c 0 -1.657 1.343 -3 3 -3 h 18.229 c 1.657 0 3 1.343 3 3 v 18.229 C 34.097 55.771 32.754 57.114 31.097 57.114 z M 15.868 51.114 h 12.229 V 38.885 H 15.868 V 51.114 z" style="stroke: none; stroke-width: 1; stroke-dasharray: none; stroke-linecap: butt; stroke-linejoin: miter; stroke-miterlimit: 10; fill: rgb(0,0,0); fill-rule: nonzero; opacity: 1;" transform=" matrix(1 0 0 1 0 0) " stroke-linecap="round" />
	<path d="M 72.344 28.013 H 54.114 c -1.657 0 -3 -1.343 -3 -3 V 6.783 c 0 -1.657 1.343 -3 3 -3 h 18.229 c 1.657 0 3 1.343 3 3 v 18.229 C 75.344 26.669 74.001 28.013 72.344 28.013 z M 57.114 22.013 h 12.229 V 9.783 H 57.114 V 22.013 z" style="stroke: none; stroke-width: 1; stroke-dasharray: none; stroke-linecap: butt; stroke-linejoin: miter; stroke-miterlimit: 10; fill: rgb(0,0,0); fill-rule: nonzero; opacity: 1;" transform=" matrix(1 0 0 1 0 0) " stroke-linecap="round" />
</g>
</svg>