<svg width="61" height="22" viewBox="0 0 61 22" fill="none" xmlns="http://www.w3.org/2000/svg">
<path d="M1 15.98L2.16 1.58L8.96 8.92H9L15.8 1.58L16.96 15.98H14.2L13.5 7.5L9 12.5C9 12.54 8.96 12.62 8.96 12.58L4.5 7.62L3.8 15.98H1Z" fill="#F5F5F5"/>
<path d="M44.82 16L38.02 1.6H40.78L44.82 10H44.92L48.98 1.6H51.72L44.92 16H44.82Z" fill="#F5F5F5"/>
<path d="M59.2 1.6V15.98H56.44V1.6H59.2Z" fill="#F5F5F5"/>
<path d="M32.0817 15.8593C34.4141 14.4646 35.9758 11.9147 35.9758 9C35.9758 4.58845 32.3997 1.01183 27.9882 1.01183C23.5761 1.01183 20 4.58845 20 9C20 13.4115 23.5761 16.9882 27.9882 16.9882H38V15.8593L32.0817 15.8593ZM31.1967 5.12842C32.0245 4.65051 33.0825 4.93397 33.5604 5.76179C34.0383 6.58962 33.7548 7.64814 32.927 8.12605C32.0992 8.6034 31.0412 8.31997 30.5633 7.49268C30.0849 6.66433 30.3689 5.60633 31.1967 5.12842ZM30.5628 10.4656C31.0412 9.63777 32.0992 9.35434 32.9271 9.83222C33.7549 10.3107 34.0383 11.3687 33.5604 12.1965C33.0826 13.0243 32.0245 13.3077 31.1962 12.8299C30.3689 12.3519 30.0849 11.2934 30.5628 10.4656ZM27.9882 2.54443C28.944 2.54443 29.7185 3.31896 29.7185 4.27479C29.7185 5.23062 28.944 6.00624 27.9882 6.00624C27.0323 6.00624 26.2567 5.23058 26.2567 4.27479C26.2567 3.319 27.0323 2.54443 27.9882 2.54443ZM28.7869 9C28.7869 9.44167 28.4293 9.79872 27.9882 9.79872C27.5465 9.79872 27.1895 9.44167 27.1895 9C27.1895 8.55833 27.5465 8.20129 27.9882 8.20129C28.4293 8.20129 28.7869 8.55837 28.7869 9ZM22.4153 5.76179C22.8933 4.93397 23.9518 4.65054 24.7796 5.12842C25.6074 5.6063 25.8909 6.66433 25.413 7.49268C24.9351 8.31994 23.8765 8.60393 23.0487 8.12605C22.2215 7.64814 21.9374 6.58962 22.4153 5.76179ZM24.7802 12.8299C23.9518 13.3078 22.8938 13.0243 22.4153 12.1965C21.938 11.3687 22.2214 10.3101 23.0487 9.83166C23.8765 9.35374 24.9351 9.63774 25.413 10.4656C25.8909 11.2934 25.6074 12.3519 24.7802 12.8299ZM26.2567 13.6829C26.2567 12.7271 27.0324 11.952 27.9882 11.952C28.944 11.952 29.7185 12.7271 29.7185 13.6829C29.7185 14.6387 28.944 15.4138 27.9882 15.4138C27.0323 15.4138 26.2567 14.6387 26.2567 13.6829Z" fill="#F5F5F5"/>
</svg>
