<svg width="63" height="28" viewBox="0 0 63 28" fill="none" xmlns="http://www.w3.org/2000/svg">
<path d="M0.564453 21.5H13.2485V17.944H5.10045V1.48001H0.564453V21.5Z" fill="#F5F5F5"/>
<path d="M21.587 18.728C19.291 18.728 18.003 17.048 18.003 14.248V14.024C18.003 11.224 19.347 9.60001 21.587 9.60001C23.855 9.60001 25.171 11.28 25.171 14.08V14.276C25.171 17.048 23.855 18.728 21.587 18.728ZM21.559 21.808C25.955 21.808 29.287 18.868 29.287 14.248V14.024C29.287 9.46001 25.983 6.52001 21.587 6.52001C17.191 6.52001 13.859 9.51601 13.859 14.108V14.332C13.859 18.896 17.191 21.808 21.559 21.808Z" fill="#F5F5F5"/>
<path d="M37.6649 26.904C42.4809 26.904 45.3649 24.692 45.3929 20.352V6.85601H41.3609V9.04001C40.5209 7.55601 39.0929 6.52001 36.7129 6.52001C33.0729 6.52001 30.2729 9.46001 30.2729 13.66V13.856C30.2729 18.196 33.1009 20.856 36.6569 20.856C38.8129 20.856 40.5489 19.568 41.3609 18.14V20.352C41.3609 22.648 40.1289 23.936 37.6649 23.936C35.5929 23.936 34.6689 23.096 34.4169 21.808H30.3849C30.7769 24.832 32.9329 26.904 37.6649 26.904ZM37.8609 17.804C35.8449 17.804 34.4169 16.292 34.4169 13.856V13.632C34.4169 11.224 35.6769 9.60001 37.9449 9.60001C40.1569 9.60001 41.4729 11.112 41.4729 13.604V13.8C41.4729 16.292 39.9889 17.804 37.8609 17.804Z" fill="#F5F5F5"/>
<path d="M54.9617 18.728C52.6657 18.728 51.3777 17.048 51.3777 14.248V14.024C51.3777 11.224 52.7217 9.60001 54.9617 9.60001C57.2297 9.60001 58.5457 11.28 58.5457 14.08V14.276C58.5457 17.048 57.2297 18.728 54.9617 18.728ZM54.9337 21.808C59.3297 21.808 62.6617 18.868 62.6617 14.248V14.024C62.6617 9.46001 59.3577 6.52001 54.9617 6.52001C50.5657 6.52001 47.2337 9.51601 47.2337 14.108V14.332C47.2337 18.896 50.5657 21.808 54.9337 21.808Z" fill="#F5F5F5"/>
</svg>
