<svg width="359" height="27" viewBox="0 0 359 27" fill="none" xmlns="http://www.w3.org/2000/svg">
<g clip-path="url(#clip0_3_265)">
<path d="M0.564453 21H13.2485V17.444H5.10045V0.97998H0.564453V21Z" fill="#0A0A0A"/>
<path d="M21.587 18.228C19.291 18.228 18.003 16.548 18.003 13.748V13.524C18.003 10.724 19.347 9.10002 21.587 9.10002C23.855 9.10002 25.171 10.78 25.171 13.58V13.776C25.171 16.548 23.855 18.228 21.587 18.228ZM21.559 21.308C25.955 21.308 29.287 18.368 29.287 13.748V13.524C29.287 8.96002 25.983 6.02002 21.587 6.02002C17.191 6.02002 13.859 9.01602 13.859 13.608V13.832C13.859 18.396 17.191 21.308 21.559 21.308Z" fill="#0A0A0A"/>
<path d="M37.6649 26.404C42.4809 26.404 45.3649 24.192 45.3929 19.852V6.35602H41.3609V8.54002C40.5209 7.05602 39.0929 6.02002 36.7129 6.02002C33.0729 6.02002 30.2729 8.96002 30.2729 13.16V13.356C30.2729 17.696 33.1009 20.356 36.6569 20.356C38.8129 20.356 40.5489 19.068 41.3609 17.64V19.852C41.3609 22.148 40.1289 23.436 37.6649 23.436C35.5929 23.436 34.6689 22.596 34.4169 21.308H30.3849C30.7769 24.332 32.9329 26.404 37.6649 26.404ZM37.8609 17.304C35.8449 17.304 34.4169 15.792 34.4169 13.356V13.132C34.4169 10.724 35.6769 9.10002 37.9449 9.10002C40.1569 9.10002 41.4729 10.612 41.4729 13.104V13.3C41.4729 15.792 39.9889 17.304 37.8609 17.304Z" fill="#0A0A0A"/>
<path d="M54.9617 18.228C52.6657 18.228 51.3777 16.548 51.3777 13.748V13.524C51.3777 10.724 52.7217 9.10002 54.9617 9.10002C57.2297 9.10002 58.5457 10.78 58.5457 13.58V13.776C58.5457 16.548 57.2297 18.228 54.9617 18.228ZM54.9337 21.308C59.3297 21.308 62.6617 18.368 62.6617 13.748V13.524C62.6617 8.96002 59.3577 6.02002 54.9617 6.02002C50.5657 6.02002 47.2337 9.01602 47.2337 13.608V13.832C47.2337 18.396 50.5657 21.308 54.9337 21.308Z" fill="#0A0A0A"/>
</g>
<defs>
<clipPath id="clip0_3_265">
<rect width="63" height="27" fill="white"/>
</clipPath>
</defs>
</svg>
