<?xml version="1.0" ?><!DOCTYPE svg  PUBLIC '-//W3C//DTD SVG 1.1//EN'  'http://www.w3.org/Graphics/SVG/1.1/DTD/svg11.dtd'><svg enable-background="new 0 0 32 32" id="cancel" version="1.1" viewBox="0 0 32 32" xml:space="preserve" xmlns="http://www.w3.org/2000/svg" xmlns:xlink="http://www.w3.org/1999/xlink"><g><g><path d="M32,16c0,0.7,0,1.3-0.1,2c-0.1,0.6-0.2,1.2-0.3,1.8c-0.8,3.4-2.7,6.3-5.3,8.5c-0.1,0.1-0.3,0.2-0.4,0.3     c-0.9,0.7-1.9,1.3-3,1.8c-0.2,0.1-0.4,0.2-0.6,0.3c-0.9,0.4-1.7,0.7-2.7,0.9c-0.5,0.1-0.9,0.2-1.4,0.3C17.4,32,16.7,32,16,32     C7.2,32,0,24.8,0,16C0,7.2,7.2,0,16,0C24.8,0,32,7.2,32,16z" fill="#EF4639"/><path d="M31.9,18c-0.1,0.6-0.2,1.2-0.3,1.8c-0.8,3.4-2.7,6.3-5.3,8.5c-0.1,0.1-0.3,0.2-0.4,0.3     c-0.9,0.7-1.9,1.3-3,1.8c-0.2,0.1-0.4,0.2-0.6,0.3c-0.9,0.4-1.7,0.7-2.7,0.9c-0.5,0.1-0.9,0.2-1.4,0.3c0,0-9-9-9-9     c-0.6-0.6-0.6-1.6,0-2.3l4.6-4.6l-4.6-4.6c-0.6-0.6-0.6-1.6,0-2.3c0.6-0.6,1.6-0.6,2.3,0l0.2,0.2l0.4,0.4l1.3,1.3l0.4,0.4     l1.3,1.3l0.4,0.4l0.7,0.7L20.6,9c0.6-0.6,1.6-0.6,2.3,0C22.9,9,31.9,18,31.9,18z" fill="#E2382F"/><g><path d="M22.9,20.5c0.6,0.6,0.6,1.6,0,2.3c-0.3,0.3-0.7,0.5-1.1,0.5c-0.4,0-0.8-0.2-1.1-0.5L16,18.2l-4.6,4.6      c-0.3,0.3-0.7,0.5-1.1,0.5c-0.4,0-0.8-0.2-1.1-0.5c-0.6-0.6-0.6-1.6,0-2.3l4.6-4.6l-4.6-4.6c-0.6-0.6-0.6-1.6,0-2.3      c0.6-0.6,1.6-0.6,2.3,0l4.6,4.6L20.6,9c0.6-0.6,1.6-0.6,2.3,0c0.6,0.6,0.6,1.6,0,2.3l-4.6,4.6L22.9,20.5z" fill="#FFFFFF"/></g></g></g></svg>