<svg width="18" height="16" viewBox="0 0 18 16" fill="none" xmlns="http://www.w3.org/2000/svg">
<path d="M12.0817 14.8593C14.4141 13.4646 15.9758 10.9147 15.9758 8C15.9758 3.58845 12.3997 0.0118332 7.98817 0.0118332C3.57606 0.0118332 0 3.58845 0 8C0 12.4115 3.57606 15.9882 7.98817 15.9882H18V14.8593L12.0817 14.8593ZM11.1967 4.12842C12.0245 3.65051 13.0825 3.93397 13.5604 4.76179C14.0383 5.58962 13.7548 6.64814 12.927 7.12605C12.0992 7.6034 11.0412 7.31997 10.5633 6.49268C10.0849 5.66433 10.3689 4.60633 11.1967 4.12842ZM10.5628 9.46559C11.0412 8.63777 12.0992 8.35434 12.9271 8.83222C13.7549 9.31066 14.0383 10.3687 13.5604 11.1965C13.0826 12.0243 12.0245 12.3077 11.1962 11.8299C10.3689 11.3519 10.0849 10.2934 10.5628 9.46559ZM7.98817 1.54443C8.944 1.54443 9.71852 2.31896 9.71852 3.27479C9.71852 4.23062 8.944 5.00624 7.98817 5.00624C7.03234 5.00624 6.25672 4.23058 6.25672 3.27479C6.25672 2.319 7.03234 1.54443 7.98817 1.54443ZM8.78688 8C8.78688 8.44167 8.42927 8.79872 7.98817 8.79872C7.5465 8.79872 7.18945 8.44167 7.18945 8C7.18945 7.55833 7.5465 7.20129 7.98817 7.20129C8.42927 7.20129 8.78688 7.55837 8.78688 8ZM2.41534 4.76179C2.89325 3.93397 3.95177 3.65054 4.7796 4.12842C5.60742 4.6063 5.89085 5.66433 5.41297 6.49268C4.93506 7.31994 3.87654 7.60393 3.04871 7.12605C2.22145 6.64814 1.93743 5.58962 2.41534 4.76179ZM4.78016 11.8299C3.95177 12.3078 2.89382 12.0243 2.41534 11.1965C1.93799 10.3687 2.22142 9.31013 3.04871 8.83166C3.87654 8.35374 4.93506 8.63774 5.41297 9.46556C5.89089 10.2934 5.60742 11.3519 4.78016 11.8299ZM6.25672 12.6829C6.25672 11.7271 7.03237 10.952 7.98817 10.952C8.94396 10.952 9.71852 11.7271 9.71852 12.6829C9.71852 13.6387 8.944 14.4138 7.98817 14.4138C7.03234 14.4138 6.25672 13.6387 6.25672 12.6829Z" fill="#F5F5F5"/>
</svg>
